# xmcd
#
# Track frame offsets: 
#        150
#        11707
#        24788
#        37743
#        52681
#        68165
#        86460
#        100715
#        116471
#        134423
#        148294
#        159399
#        171276
#        186527
#
# Disc length: 2659 seconds
#
# Revision: 0
# Processed by: cddbd v1.5.2PL0 Copyright (c) Steve Scherf et al.
# Submitted via: ExactAudioCopy v1.3
#
DISCID=af0a610e
DTITLE=Novadnieki - Baudi dzīvi!
DYEAR=2008
DGENRE=Latvian
TTITLE0=Bišu lietus
TTITLE1=Meitenīt'...
TTITLE2=Hei, vecais!
TTITLE3=Baudi dzīvi!
TTITLE4=Nesaki tā
TTITLE5=Reizi gadā
TTITLE6=Lai daudzi vārdi
TTITLE7=Lietainā dienā
TTITLE8=Kad Tu nāksi?
TTITLE9=Ja gribi bagāts būt
TTITLE10=Jāņa auto
TTITLE11=Ko man darīt?
TTITLE12=Rozā sapnis
TTITLE13=Picture (Eirovīzijas dziesma)
EXTD=
EXTT0=
EXTT1=
EXTT2=
EXTT3=
EXTT4=
EXTT5=
EXTT6=
EXTT7=
EXTT8=
EXTT9=
EXTT10=
EXTT11=
EXTT12=
EXTT13=
PLAYORDER=
